<?xml version="1.0" encoding="UTF-8"?>
<svg width="633px" height="45px" viewBox="0 0 633 45" version="1.1" xmlns="http://www.w3.org/2000/svg" xmlns:xlink="http://www.w3.org/1999/xlink">
    <!-- Generator: Sketch 60.1 (88133) - https://sketch.com -->
    <title>Group 6</title>
    <desc>Created with Sketch.</desc>
    <g id="Page-1" stroke="none" stroke-width="1" fill="none" fill-rule="evenodd" stroke-linecap="square">
        <g id="About" transform="translate(-249.000000, -3387.000000)" stroke="#EFEFF4">
            <g id="Group-6" transform="translate(249.000000, 3387.000000)">
                <g id="Group-5">
                    <g id="Group-2">
                        <line x1="0.5" y1="44.5" x2="45.5" y2="0.5" id="Line-4"></line>
                        <line x1="20.5" y1="44.5" x2="65.5" y2="0.5" id="Line-4"></line>
                        <line x1="41.5" y1="44.5" x2="86.5" y2="0.5" id="Line-4"></line>
                        <line x1="61.5" y1="44.5" x2="106.5" y2="0.5" id="Line-4"></line>
                        <line x1="81.5" y1="44.5" x2="126.5" y2="0.5" id="Line-4"></line>
                    </g>
                    <g id="Group-2" transform="translate(101.000000, 0.000000)">
                        <line x1="0.5" y1="44.5" x2="45.5" y2="0.5" id="Line-4"></line>
                        <line x1="20.5" y1="44.5" x2="65.5" y2="0.5" id="Line-4"></line>
                        <line x1="41.5" y1="44.5" x2="86.5" y2="0.5" id="Line-4"></line>
                        <line x1="61.5" y1="44.5" x2="106.5" y2="0.5" id="Line-4"></line>
                        <line x1="81.5" y1="44.5" x2="126.5" y2="0.5" id="Line-4"></line>
                    </g>
                </g>
                <g id="Group-5" transform="translate(203.000000, 0.000000)">
                    <g id="Group-2">
                        <line x1="0.5" y1="44.5" x2="45.5" y2="0.5" id="Line-4"></line>
                        <line x1="20.5" y1="44.5" x2="65.5" y2="0.5" id="Line-4"></line>
                        <line x1="41.5" y1="44.5" x2="86.5" y2="0.5" id="Line-4"></line>
                        <line x1="61.5" y1="44.5" x2="106.5" y2="0.5" id="Line-4"></line>
                        <line x1="81.5" y1="44.5" x2="126.5" y2="0.5" id="Line-4"></line>
                    </g>
                    <g id="Group-2" transform="translate(101.000000, 0.000000)">
                        <line x1="0.5" y1="44.5" x2="45.5" y2="0.5" id="Line-4"></line>
                        <line x1="20.5" y1="44.5" x2="65.5" y2="0.5" id="Line-4"></line>
                        <line x1="41.5" y1="44.5" x2="86.5" y2="0.5" id="Line-4"></line>
                        <line x1="61.5" y1="44.5" x2="106.5" y2="0.5" id="Line-4"></line>
                        <line x1="81.5" y1="44.5" x2="126.5" y2="0.5" id="Line-4"></line>
                    </g>
                </g>
                <g id="Group-5" transform="translate(405.000000, 0.000000)">
                    <g id="Group-2">
                        <line x1="0.5" y1="44.5" x2="45.5" y2="0.5" id="Line-4"></line>
                        <line x1="20.5" y1="44.5" x2="65.5" y2="0.5" id="Line-4"></line>
                        <line x1="41.5" y1="44.5" x2="86.5" y2="0.5" id="Line-4"></line>
                        <line x1="61.5" y1="44.5" x2="106.5" y2="0.5" id="Line-4"></line>
                        <line x1="81.5" y1="44.5" x2="126.5" y2="0.5" id="Line-4"></line>
                    </g>
                    <g id="Group-2" transform="translate(101.000000, 0.000000)">
                        <line x1="0.5" y1="44.5" x2="45.5" y2="0.5" id="Line-4"></line>
                        <line x1="20.5" y1="44.5" x2="65.5" y2="0.5" id="Line-4"></line>
                        <line x1="41.5" y1="44.5" x2="86.5" y2="0.5" id="Line-4"></line>
                        <line x1="61.5" y1="44.5" x2="106.5" y2="0.5" id="Line-4"></line>
                        <line x1="81.5" y1="44.5" x2="126.5" y2="0.5" id="Line-4"></line>
                    </g>
                </g>
            </g>
        </g>
    </g>
</svg>