<?xml version="1.0" encoding="UTF-8"?>
<svg width="36px" height="35px" viewBox="0 0 36 35" version="1.1" xmlns="http://www.w3.org/2000/svg" xmlns:xlink="http://www.w3.org/1999/xlink">
    <!-- Generator: Sketch 60.1 (88133) - https://sketch.com -->
    <title>JP</title>
    <desc>Created with Sketch.</desc>
    <g id="Page-1" stroke="none" stroke-width="1" fill="none" fill-rule="evenodd">
        <g id="Contact" transform="translate(-785.000000, -1658.000000)" fill="#FFFFFF" fill-rule="nonzero">
            <g id="Map" transform="translate(107.000000, 1335.000000)">
                <path d="M678.159544,358 C684.660969,357.035591 688.809117,353.258324 688.809117,343.97589 L688.809117,327.219288 C688.809117,324.607348 690.205128,323.482204 692,323.482204 L692,323 L681.749288,323 L681.749288,323.482204 C684.660969,323.482204 684.700855,324.446613 684.700855,332.121699 L684.700855,344.498278 C684.700855,353.21814 681.430199,356.272101 678,357.517796 L678.159544,358 Z M704.272374,351 L704.272374,350.482955 C701.821012,350.482955 700.420233,350.323864 700.420233,345.551136 L700.420233,339.028409 L701.120623,339.028409 C708.863813,339.028409 714,338.073864 714,331.034091 C714,324.111869 709.089552,323.045449 701.632945,323.001471 L694.077821,323 L694.077821,323.517045 C696.023346,323.517045 696.568093,324.511364 696.568093,327.255682 L696.568093,345.670455 C696.568093,349.448864 695.906615,350.482955 694,350.482955 L694,351 L704.272374,351 Z M701.453026,338.998409 L700,339 L700,323 L701.738958,323.001991 C706.201253,323.031896 710,323.507355 710,331.02122 C710,338.507495 706.211916,338.971446 701.453026,338.998409 L701.453026,338.998409 Z" id="JP"></path>
            </g>
        </g>
    </g>
</svg>