<?xml version="1.0" encoding="UTF-8"?>
<svg width="55px" height="53px" viewBox="0 0 55 53" version="1.1" xmlns="http://www.w3.org/2000/svg" xmlns:xlink="http://www.w3.org/1999/xlink">
    <!-- Generator: Sketch 60.1 (88133) - https://sketch.com -->
    <title>JP</title>
    <desc>Created with Sketch.</desc>
    <g id="Page-1" stroke="none" stroke-width="1" fill="none" fill-rule="evenodd">
        <g id="Desktop" transform="translate(-28.000000, -41.000000)" fill="#000000" fill-rule="nonzero">
            <path d="M28.2393162,94 C37.991453,92.5396096 44.2136752,86.8197474 44.2136752,72.7634902 L44.2136752,47.3892078 C44.2136752,43.4339839 46.3076923,41.7301952 49,41.7301952 L49,41 L33.6239316,41 L33.6239316,41.7301952 C37.991453,41.7301952 38.0512821,43.1905855 38.0512821,54.8128588 L38.0512821,73.554535 C38.0512821,86.7588978 33.1452991,91.3834673 28,93.2698048 L28.2393162,94 Z M67.922179,84 L67.922179,83.2059659 C64.1225681,83.2059659 61.9513619,82.9616477 61.9513619,75.6321023 L61.9513619,65.6150568 L63.036965,65.6150568 C75.0389105,65.6150568 83,64.1491477 83,53.3380682 C83,42.7075126 75.3888053,41.0697966 63.8310652,41.0022589 L52.1206226,41 L52.1206226,41.7940341 C55.1361868,41.7940341 55.9805447,43.3210227 55.9805447,47.5355114 L55.9805447,75.8153409 C55.9805447,81.6178977 54.9552529,83.2059659 52,83.2059659 L52,84 L67.922179,84 Z M64.1795392,64.9976139 L62,65 L62,41 L64.6084366,41.0029863 C71.3018789,41.047844 77,41.7610321 77,53.0318302 C77,64.2612424 71.3178745,64.9571695 64.1795392,64.9976139 L64.1795392,64.9976139 Z" id="JP"></path>
        </g>
    </g>
</svg>