<?xml version="1.0" encoding="UTF-8"?>
<svg width="59px" height="83px" viewBox="0 0 59 83" version="1.1" xmlns="http://www.w3.org/2000/svg" xmlns:xlink="http://www.w3.org/1999/xlink">
    <!-- Generator: Sketch 60.1 (88133) - https://sketch.com -->
    <title>Group 10</title>
    <desc>Created with Sketch.</desc>
    <g id="Page-1" stroke="none" stroke-width="1" fill="none" fill-rule="evenodd">
        <g id="Contact" transform="translate(-773.000000, -1642.000000)">
            <g id="Map" transform="translate(107.000000, 1335.000000)">
                <g id="Group-10" transform="translate(666.000000, 307.000000)">
                    <g id="Marker" fill="#E7AE5B">
                        <g id="Group-9">
                            <path d="M29.5,83 C49.1666667,60.2229183 59,43.0428108 59,31.4596774 C59,14.0849773 45.7924001,0 29.5,0 C13.2075999,0 0,14.0849773 0,31.4596774 C0,43.0428108 9.83333333,60.2229183 29.5,83 Z" id="Oval"></path>
                        </g>
                    </g>
                    <path d="M12.1595442,51 C18.6609687,50.0355913 22.8091168,46.2583238 22.8091168,36.9758898 L22.8091168,20.2192882 C22.8091168,17.6073479 24.2051282,16.4822044 26,16.4822044 L26,16 L15.7492877,16 L15.7492877,16.4822044 C18.6609687,16.4822044 18.7008547,17.4466131 18.7008547,25.1216992 L18.7008547,37.4982778 C18.7008547,46.2181401 15.4301994,49.272101 12,50.5177956 L12.1595442,51 Z M38.2723735,44 L38.2723735,43.4829545 C35.8210117,43.4829545 34.4202335,43.3238636 34.4202335,38.5511364 L34.4202335,32.0284091 L35.1206226,32.0284091 C42.8638132,32.0284091 48,31.0738636 48,24.0340909 C48,17.1118687 43.0895518,16.0454489 35.6329453,16.0014709 L28.077821,16 L28.077821,16.5170455 C30.0233463,16.5170455 30.5680934,17.5113636 30.5680934,20.2556818 L30.5680934,38.6704545 C30.5680934,42.4488636 29.9066148,43.4829545 28,43.4829545 L28,44 L38.2723735,44 Z M35.4530261,31.9984093 L34,32 L34,16 L35.7389577,16.0019909 C40.2012526,16.031896 44,16.5073547 44,24.0212202 C44,31.5074949 40.2119164,31.9714463 35.4530261,31.9984093 L35.4530261,31.9984093 Z" id="JP" fill="#FFFFFF" fill-rule="nonzero"></path>
                </g>
            </g>
        </g>
    </g>
</svg>